<mxfile host="app.diagrams.net" modified="2023-06-13T04:59:39.651Z" agent="Mozilla/5.0 (Windows NT 10.0; Win64; x64) AppleWebKit/537.36 (KHTML, like Gecko) Chrome/114.0.0.0 Safari/537.36 Edg/114.0.1823.43" etag="XSpCI8eLmv7KRexxFZUA" version="21.2.1" type="device">
  <diagram id="6a731a19-8d31-9384-78a2-239565b7b9f0" name="Page-1">
    <mxGraphModel dx="1236" dy="581" grid="1" gridSize="10" guides="1" tooltips="1" connect="1" arrows="1" fold="1" page="1" pageScale="1" pageWidth="1169" pageHeight="827" background="none" math="0" shadow="0">
      <root>
        <mxCell id="0" />
        <mxCell id="1" parent="0" />
        <mxCell id="YEjELDQnE_vABNyx93fi-108" style="edgeStyle=orthogonalEdgeStyle;rounded=0;orthogonalLoop=1;jettySize=auto;html=1;exitX=0;exitY=0.5;exitDx=0;exitDy=0;entryX=1;entryY=0.5;entryDx=0;entryDy=0;" edge="1" parent="1" source="YEjELDQnE_vABNyx93fi-68" target="YEjELDQnE_vABNyx93fi-106">
          <mxGeometry relative="1" as="geometry" />
        </mxCell>
        <mxCell id="YEjELDQnE_vABNyx93fi-68" value="Geschlossen" style="rounded=1;whiteSpace=wrap;html=1;" vertex="1" parent="1">
          <mxGeometry x="724" y="310" width="160" height="60" as="geometry" />
        </mxCell>
        <mxCell id="2" value="start" style="shape=mxgraph.flowchart.terminator;strokeWidth=2;gradientColor=none;gradientDirection=north;fontStyle=0;html=1;" parent="1" vertex="1">
          <mxGeometry x="316" y="60" width="120" height="30" as="geometry" />
        </mxCell>
        <mxCell id="7" style="fontStyle=1;strokeColor=#003366;strokeWidth=1;html=1;entryX=0.5;entryY=0;entryDx=0;entryDy=0;" parent="1" source="2" target="YEjELDQnE_vABNyx93fi-62" edge="1">
          <mxGeometry relative="1" as="geometry">
            <mxPoint x="376" y="130" as="targetPoint" />
          </mxGeometry>
        </mxCell>
        <mxCell id="14" value="no" style="text;fontStyle=0;html=1;strokeColor=none;gradientColor=none;fillColor=none;strokeWidth=2;align=center;" parent="1" vertex="1">
          <mxGeometry x="1280" y="1100" width="40" height="26" as="geometry" />
        </mxCell>
        <mxCell id="YEjELDQnE_vABNyx93fi-61" value="" style="edgeStyle=orthogonalEdgeStyle;rounded=0;orthogonalLoop=1;jettySize=auto;html=1;entryX=0.38;entryY=0;entryDx=0;entryDy=0;entryPerimeter=0;exitX=0.5;exitY=1;exitDx=0;exitDy=0;" edge="1" parent="1" source="YEjELDQnE_vABNyx93fi-62" target="YEjELDQnE_vABNyx93fi-60">
          <mxGeometry relative="1" as="geometry">
            <mxPoint x="356" y="260" as="sourcePoint" />
            <Array as="points">
              <mxPoint x="376" y="230" />
              <mxPoint x="286" y="230" />
              <mxPoint x="286" y="390" />
              <mxPoint x="377" y="390" />
            </Array>
          </mxGeometry>
        </mxCell>
        <mxCell id="YEjELDQnE_vABNyx93fi-97" style="edgeStyle=orthogonalEdgeStyle;rounded=0;orthogonalLoop=1;jettySize=auto;html=1;exitX=0.25;exitY=0;exitDx=0;exitDy=0;entryX=0.75;entryY=0;entryDx=0;entryDy=0;" edge="1" parent="1" source="YEjELDQnE_vABNyx93fi-60" target="YEjELDQnE_vABNyx93fi-67">
          <mxGeometry relative="1" as="geometry" />
        </mxCell>
        <mxCell id="YEjELDQnE_vABNyx93fi-103" style="edgeStyle=orthogonalEdgeStyle;rounded=0;orthogonalLoop=1;jettySize=auto;html=1;exitX=0.75;exitY=1;exitDx=0;exitDy=0;entryX=0.25;entryY=1;entryDx=0;entryDy=0;" edge="1" parent="1" source="YEjELDQnE_vABNyx93fi-60" target="YEjELDQnE_vABNyx93fi-72">
          <mxGeometry relative="1" as="geometry" />
        </mxCell>
        <mxCell id="YEjELDQnE_vABNyx93fi-60" value="GestopptP1" style="rounded=1;whiteSpace=wrap;html=1;points=[[0,0,0,0,0],[0,0.25,0,0,0],[0,0.5,0,0,0],[0,0.75,0,0,0],[0,1,0,0,0],[0.25,0,0,0,0],[0.25,1,0,0,0],[0.38,0,0,0,0],[0.5,0,0,0,0],[0.5,1,0,0,0],[0.62,0,0,0,0],[0.75,0,0,0,0],[0.75,1,0,0,0],[1,0,0,0,0],[1,0.25,0,0,0],[1,0.5,0,0,0],[1,0.75,0,0,0],[1,1,0,0,0]];" vertex="1" parent="1">
          <mxGeometry x="331" y="440" width="120" height="60" as="geometry" />
        </mxCell>
        <mxCell id="YEjELDQnE_vABNyx93fi-94" value="bei&lt;br&gt;unplausiblen&lt;br&gt;Eingangskombinationen" style="edgeStyle=orthogonalEdgeStyle;rounded=0;orthogonalLoop=1;jettySize=auto;html=1;exitX=1;exitY=0.5;exitDx=0;exitDy=0;entryX=0;entryY=0.5;entryDx=0;entryDy=0;" edge="1" parent="1" source="YEjELDQnE_vABNyx93fi-62" target="YEjELDQnE_vABNyx93fi-63">
          <mxGeometry relative="1" as="geometry" />
        </mxCell>
        <mxCell id="YEjELDQnE_vABNyx93fi-110" style="edgeStyle=orthogonalEdgeStyle;rounded=0;orthogonalLoop=1;jettySize=auto;html=1;exitX=0.75;exitY=1;exitDx=0;exitDy=0;entryX=0.75;entryY=0;entryDx=0;entryDy=0;" edge="1" parent="1" source="YEjELDQnE_vABNyx93fi-62" target="YEjELDQnE_vABNyx93fi-106">
          <mxGeometry relative="1" as="geometry" />
        </mxCell>
        <mxCell id="YEjELDQnE_vABNyx93fi-112" style="edgeStyle=orthogonalEdgeStyle;rounded=0;orthogonalLoop=1;jettySize=auto;html=1;exitX=0.25;exitY=1;exitDx=0;exitDy=0;entryX=0;entryY=0.25;entryDx=0;entryDy=0;entryPerimeter=0;" edge="1" parent="1" source="YEjELDQnE_vABNyx93fi-62" target="YEjELDQnE_vABNyx93fi-60">
          <mxGeometry relative="1" as="geometry">
            <mxPoint x="256" y="230" as="targetPoint" />
            <Array as="points">
              <mxPoint x="346" y="210" />
              <mxPoint x="276" y="210" />
              <mxPoint x="276" y="455" />
            </Array>
          </mxGeometry>
        </mxCell>
        <mxCell id="YEjELDQnE_vABNyx93fi-113" style="edgeStyle=orthogonalEdgeStyle;rounded=0;orthogonalLoop=1;jettySize=auto;html=1;exitX=0;exitY=1;exitDx=0;exitDy=0;entryX=0;entryY=0.25;entryDx=0;entryDy=0;" edge="1" parent="1" source="YEjELDQnE_vABNyx93fi-62" target="YEjELDQnE_vABNyx93fi-95">
          <mxGeometry relative="1" as="geometry">
            <Array as="points">
              <mxPoint x="260" y="190" />
              <mxPoint x="260" y="588" />
            </Array>
          </mxGeometry>
        </mxCell>
        <mxCell id="YEjELDQnE_vABNyx93fi-114" style="edgeStyle=orthogonalEdgeStyle;rounded=0;orthogonalLoop=1;jettySize=auto;html=1;exitX=0;exitY=0.75;exitDx=0;exitDy=0;entryX=0;entryY=0.25;entryDx=0;entryDy=0;" edge="1" parent="1" source="YEjELDQnE_vABNyx93fi-62" target="YEjELDQnE_vABNyx93fi-96">
          <mxGeometry relative="1" as="geometry">
            <Array as="points">
              <mxPoint x="250" y="175" />
              <mxPoint x="250" y="731" />
            </Array>
          </mxGeometry>
        </mxCell>
        <mxCell id="YEjELDQnE_vABNyx93fi-115" style="edgeStyle=orthogonalEdgeStyle;rounded=0;orthogonalLoop=1;jettySize=auto;html=1;exitX=0;exitY=0.5;exitDx=0;exitDy=0;entryX=0;entryY=0.25;entryDx=0;entryDy=0;" edge="1" parent="1" source="YEjELDQnE_vABNyx93fi-62" target="YEjELDQnE_vABNyx93fi-109">
          <mxGeometry relative="1" as="geometry">
            <Array as="points">
              <mxPoint x="230" y="160" />
              <mxPoint x="230" y="874" />
            </Array>
          </mxGeometry>
        </mxCell>
        <mxCell id="YEjELDQnE_vABNyx93fi-62" value="Uninitialisiert" style="rounded=1;whiteSpace=wrap;html=1;" vertex="1" parent="1">
          <mxGeometry x="316" y="130" width="120" height="60" as="geometry" />
        </mxCell>
        <mxCell id="YEjELDQnE_vABNyx93fi-63" value="Fehlerhaft" style="rounded=1;whiteSpace=wrap;html=1;" vertex="1" parent="1">
          <mxGeometry x="580" y="130" width="120" height="60" as="geometry" />
        </mxCell>
        <mxCell id="YEjELDQnE_vABNyx93fi-64" value="nach Fehlerbehebung (und kein Verfahrbefehl)" style="endArrow=classic;html=1;rounded=0;entryX=1;entryY=0;entryDx=0;entryDy=0;exitX=0.5;exitY=1;exitDx=0;exitDy=0;" edge="1" parent="1" source="YEjELDQnE_vABNyx93fi-63" target="YEjELDQnE_vABNyx93fi-60">
          <mxGeometry x="-0.5363" y="6" width="50" height="50" relative="1" as="geometry">
            <mxPoint x="616" y="330" as="sourcePoint" />
            <mxPoint x="666" y="280" as="targetPoint" />
            <mxPoint as="offset" />
          </mxGeometry>
        </mxCell>
        <mxCell id="YEjELDQnE_vABNyx93fi-81" style="edgeStyle=orthogonalEdgeStyle;rounded=0;orthogonalLoop=1;jettySize=auto;html=1;exitX=0.5;exitY=1;exitDx=0;exitDy=0;entryX=0.5;entryY=0;entryDx=0;entryDy=0;" edge="1" parent="1" source="YEjELDQnE_vABNyx93fi-65" target="YEjELDQnE_vABNyx93fi-69">
          <mxGeometry relative="1" as="geometry">
            <mxPoint x="125" y="683" as="sourcePoint" />
          </mxGeometry>
        </mxCell>
        <mxCell id="YEjELDQnE_vABNyx93fi-90" style="edgeStyle=orthogonalEdgeStyle;rounded=0;orthogonalLoop=1;jettySize=auto;html=1;exitX=0.75;exitY=1;exitDx=0;exitDy=0;entryX=0.25;entryY=1;entryDx=0;entryDy=0;" edge="1" parent="1" source="YEjELDQnE_vABNyx93fi-65" target="YEjELDQnE_vABNyx93fi-95">
          <mxGeometry relative="1" as="geometry" />
        </mxCell>
        <mxCell id="YEjELDQnE_vABNyx93fi-65" value="OeffnendP2Verfahren" style="rounded=1;whiteSpace=wrap;html=1;" vertex="1" parent="1">
          <mxGeometry x="40" y="573" width="170" height="60" as="geometry" />
        </mxCell>
        <mxCell id="YEjELDQnE_vABNyx93fi-83" style="edgeStyle=orthogonalEdgeStyle;rounded=0;orthogonalLoop=1;jettySize=auto;html=1;exitX=1;exitY=0.5;exitDx=0;exitDy=0;entryX=0.5;entryY=1;entryDx=0;entryDy=0;" edge="1" parent="1" source="YEjELDQnE_vABNyx93fi-109" target="YEjELDQnE_vABNyx93fi-70">
          <mxGeometry relative="1" as="geometry" />
        </mxCell>
        <mxCell id="YEjELDQnE_vABNyx93fi-92" style="edgeStyle=orthogonalEdgeStyle;rounded=0;orthogonalLoop=1;jettySize=auto;html=1;exitX=1;exitY=0.5;exitDx=0;exitDy=0;entryX=0;entryY=0.5;entryDx=0;entryDy=0;" edge="1" parent="1" source="YEjELDQnE_vABNyx93fi-66" target="YEjELDQnE_vABNyx93fi-109">
          <mxGeometry relative="1" as="geometry" />
        </mxCell>
        <mxCell id="YEjELDQnE_vABNyx93fi-66" value="Offen" style="rounded=1;whiteSpace=wrap;html=1;" vertex="1" parent="1">
          <mxGeometry x="55" y="859" width="140" height="60" as="geometry" />
        </mxCell>
        <mxCell id="YEjELDQnE_vABNyx93fi-80" style="edgeStyle=orthogonalEdgeStyle;rounded=0;orthogonalLoop=1;jettySize=auto;html=1;exitX=0.5;exitY=1;exitDx=0;exitDy=0;entryX=0.5;entryY=0;entryDx=0;entryDy=0;" edge="1" parent="1" source="YEjELDQnE_vABNyx93fi-67" target="YEjELDQnE_vABNyx93fi-65">
          <mxGeometry relative="1" as="geometry" />
        </mxCell>
        <mxCell id="YEjELDQnE_vABNyx93fi-104" style="edgeStyle=orthogonalEdgeStyle;rounded=0;orthogonalLoop=1;jettySize=auto;html=1;exitX=0.75;exitY=1;exitDx=0;exitDy=0;entryX=0.25;entryY=1;entryDx=0;entryDy=0;" edge="1" parent="1" source="YEjELDQnE_vABNyx93fi-67" target="YEjELDQnE_vABNyx93fi-60">
          <mxGeometry relative="1" as="geometry" />
        </mxCell>
        <mxCell id="YEjELDQnE_vABNyx93fi-67" value="OeffnendP1VorVerfahren" style="rounded=1;whiteSpace=wrap;html=1;" vertex="1" parent="1">
          <mxGeometry x="60" y="440" width="130" height="60" as="geometry" />
        </mxCell>
        <mxCell id="YEjELDQnE_vABNyx93fi-82" style="edgeStyle=orthogonalEdgeStyle;rounded=0;orthogonalLoop=1;jettySize=auto;html=1;exitX=0.5;exitY=1;exitDx=0;exitDy=0;" edge="1" parent="1" source="YEjELDQnE_vABNyx93fi-69" target="YEjELDQnE_vABNyx93fi-66">
          <mxGeometry relative="1" as="geometry" />
        </mxCell>
        <mxCell id="YEjELDQnE_vABNyx93fi-91" style="edgeStyle=orthogonalEdgeStyle;rounded=0;orthogonalLoop=1;jettySize=auto;html=1;exitX=0.75;exitY=1;exitDx=0;exitDy=0;entryX=0.25;entryY=1;entryDx=0;entryDy=0;" edge="1" parent="1" source="YEjELDQnE_vABNyx93fi-69" target="YEjELDQnE_vABNyx93fi-96">
          <mxGeometry relative="1" as="geometry">
            <mxPoint x="280" y="706" as="targetPoint" />
          </mxGeometry>
        </mxCell>
        <mxCell id="YEjELDQnE_vABNyx93fi-69" value="OeffnendP3KlappeNachVerfahren" style="rounded=1;whiteSpace=wrap;html=1;" vertex="1" parent="1">
          <mxGeometry x="35" y="716" width="180" height="60" as="geometry" />
        </mxCell>
        <mxCell id="YEjELDQnE_vABNyx93fi-84" style="edgeStyle=orthogonalEdgeStyle;rounded=0;orthogonalLoop=1;jettySize=auto;html=1;exitX=0.5;exitY=0;exitDx=0;exitDy=0;entryX=0.5;entryY=1;entryDx=0;entryDy=0;" edge="1" parent="1" source="YEjELDQnE_vABNyx93fi-70" target="YEjELDQnE_vABNyx93fi-71">
          <mxGeometry relative="1" as="geometry">
            <mxPoint x="804" y="683" as="targetPoint" />
            <Array as="points" />
          </mxGeometry>
        </mxCell>
        <mxCell id="YEjELDQnE_vABNyx93fi-93" style="edgeStyle=orthogonalEdgeStyle;rounded=0;orthogonalLoop=1;jettySize=auto;html=1;exitX=0.25;exitY=0;exitDx=0;exitDy=0;entryX=0.75;entryY=0;entryDx=0;entryDy=0;" edge="1" parent="1" source="YEjELDQnE_vABNyx93fi-70" target="YEjELDQnE_vABNyx93fi-96">
          <mxGeometry relative="1" as="geometry" />
        </mxCell>
        <mxCell id="YEjELDQnE_vABNyx93fi-70" value="SchließendP3KlappeVorVerfahren" style="rounded=1;whiteSpace=wrap;html=1;" vertex="1" parent="1">
          <mxGeometry x="714" y="716" width="180" height="60" as="geometry" />
        </mxCell>
        <mxCell id="YEjELDQnE_vABNyx93fi-85" style="edgeStyle=orthogonalEdgeStyle;rounded=0;orthogonalLoop=1;jettySize=auto;html=1;exitX=0.5;exitY=0;exitDx=0;exitDy=0;entryX=0.5;entryY=1;entryDx=0;entryDy=0;" edge="1" parent="1" source="YEjELDQnE_vABNyx93fi-71" target="YEjELDQnE_vABNyx93fi-72">
          <mxGeometry relative="1" as="geometry" />
        </mxCell>
        <mxCell id="YEjELDQnE_vABNyx93fi-86" style="edgeStyle=orthogonalEdgeStyle;rounded=0;orthogonalLoop=1;jettySize=auto;html=1;exitX=0.25;exitY=0;exitDx=0;exitDy=0;entryX=0.75;entryY=0;entryDx=0;entryDy=0;" edge="1" parent="1" source="YEjELDQnE_vABNyx93fi-71" target="YEjELDQnE_vABNyx93fi-95">
          <mxGeometry relative="1" as="geometry" />
        </mxCell>
        <mxCell id="YEjELDQnE_vABNyx93fi-71" value="SchließendP2Verfahren" style="rounded=1;whiteSpace=wrap;html=1;" vertex="1" parent="1">
          <mxGeometry x="724" y="573" width="160" height="60" as="geometry" />
        </mxCell>
        <mxCell id="YEjELDQnE_vABNyx93fi-105" style="edgeStyle=orthogonalEdgeStyle;rounded=0;orthogonalLoop=1;jettySize=auto;html=1;exitX=0.25;exitY=0;exitDx=0;exitDy=0;entryX=0.75;entryY=0;entryDx=0;entryDy=0;entryPerimeter=0;" edge="1" parent="1" source="YEjELDQnE_vABNyx93fi-72" target="YEjELDQnE_vABNyx93fi-60">
          <mxGeometry relative="1" as="geometry">
            <mxPoint x="486" y="440" as="targetPoint" />
          </mxGeometry>
        </mxCell>
        <mxCell id="YEjELDQnE_vABNyx93fi-72" value="SchließendP1NachVerfahren" style="rounded=1;whiteSpace=wrap;html=1;" vertex="1" parent="1">
          <mxGeometry x="724.75" y="440" width="158.5" height="60" as="geometry" />
        </mxCell>
        <mxCell id="YEjELDQnE_vABNyx93fi-76" value="" style="endArrow=classic;html=1;rounded=0;exitX=0.5;exitY=0;exitDx=0;exitDy=0;entryX=0.5;entryY=1;entryDx=0;entryDy=0;" edge="1" parent="1" source="YEjELDQnE_vABNyx93fi-72" target="YEjELDQnE_vABNyx93fi-68">
          <mxGeometry width="50" height="50" relative="1" as="geometry">
            <mxPoint x="834" y="502" as="sourcePoint" />
            <mxPoint x="884" y="452" as="targetPoint" />
          </mxGeometry>
        </mxCell>
        <mxCell id="YEjELDQnE_vABNyx93fi-101" style="edgeStyle=orthogonalEdgeStyle;rounded=0;orthogonalLoop=1;jettySize=auto;html=1;exitX=0.75;exitY=1;exitDx=0;exitDy=0;entryX=0.25;entryY=1;entryDx=0;entryDy=0;" edge="1" parent="1" source="YEjELDQnE_vABNyx93fi-95" target="YEjELDQnE_vABNyx93fi-71">
          <mxGeometry relative="1" as="geometry" />
        </mxCell>
        <mxCell id="YEjELDQnE_vABNyx93fi-102" style="edgeStyle=orthogonalEdgeStyle;rounded=0;orthogonalLoop=1;jettySize=auto;html=1;exitX=0.25;exitY=0;exitDx=0;exitDy=0;entryX=0.75;entryY=0;entryDx=0;entryDy=0;" edge="1" parent="1" source="YEjELDQnE_vABNyx93fi-95" target="YEjELDQnE_vABNyx93fi-65">
          <mxGeometry relative="1" as="geometry" />
        </mxCell>
        <mxCell id="YEjELDQnE_vABNyx93fi-95" value="GestopptP2" style="rounded=1;whiteSpace=wrap;html=1;" vertex="1" parent="1">
          <mxGeometry x="336" y="573" width="120" height="60" as="geometry" />
        </mxCell>
        <mxCell id="YEjELDQnE_vABNyx93fi-98" style="edgeStyle=orthogonalEdgeStyle;rounded=0;orthogonalLoop=1;jettySize=auto;html=1;exitX=0.25;exitY=0;exitDx=0;exitDy=0;entryX=0.75;entryY=0;entryDx=0;entryDy=0;" edge="1" parent="1" source="YEjELDQnE_vABNyx93fi-96" target="YEjELDQnE_vABNyx93fi-69">
          <mxGeometry relative="1" as="geometry" />
        </mxCell>
        <mxCell id="YEjELDQnE_vABNyx93fi-99" style="edgeStyle=orthogonalEdgeStyle;rounded=0;orthogonalLoop=1;jettySize=auto;html=1;exitX=0.75;exitY=1;exitDx=0;exitDy=0;entryX=0.25;entryY=1;entryDx=0;entryDy=0;" edge="1" parent="1" source="YEjELDQnE_vABNyx93fi-96" target="YEjELDQnE_vABNyx93fi-70">
          <mxGeometry relative="1" as="geometry" />
        </mxCell>
        <mxCell id="YEjELDQnE_vABNyx93fi-96" value="GestopptP3" style="rounded=1;whiteSpace=wrap;html=1;" vertex="1" parent="1">
          <mxGeometry x="331" y="716" width="120" height="60" as="geometry" />
        </mxCell>
        <mxCell id="YEjELDQnE_vABNyx93fi-107" style="edgeStyle=orthogonalEdgeStyle;rounded=0;orthogonalLoop=1;jettySize=auto;html=1;exitX=0;exitY=0.5;exitDx=0;exitDy=0;entryX=0.5;entryY=0;entryDx=0;entryDy=0;" edge="1" parent="1" source="YEjELDQnE_vABNyx93fi-106" target="YEjELDQnE_vABNyx93fi-67">
          <mxGeometry relative="1" as="geometry" />
        </mxCell>
        <mxCell id="YEjELDQnE_vABNyx93fi-106" value="GestopptGeschlossen" style="rounded=1;whiteSpace=wrap;html=1;" vertex="1" parent="1">
          <mxGeometry x="316" y="310" width="130" height="60" as="geometry" />
        </mxCell>
        <mxCell id="YEjELDQnE_vABNyx93fi-109" value="GestopptOffen" style="rounded=1;whiteSpace=wrap;html=1;" vertex="1" parent="1">
          <mxGeometry x="338" y="859" width="180" height="60" as="geometry" />
        </mxCell>
      </root>
    </mxGraphModel>
  </diagram>
</mxfile>
